<svg width="83" height="60" viewBox="0 0 83 60" fill="none" xmlns="http://www.w3.org/2000/svg">
<path d="M78.5058 45.638C76.4764 42.9517 73.7705 41.1137 70.5306 40.1948C71.9547 39.3465 73.3077 38.2861 74.5182 37.049C78.0429 33.4438 80.0723 28.7428 80.0723 24.1125H76.3696C76.3696 27.7885 74.7318 31.5704 71.8835 34.4688C69.3913 37.0137 66.2938 38.5689 63.0182 39.0284V23.7944H55.6839C49.6313 23.7944 45.5013 25.5264 43.6143 26.5514C41.7273 25.5617 37.5973 23.7944 31.5803 23.7944H17.4813V23.8298C7.79717 24.0772 0 31.9592 0 41.6439C0 51.47 8.0464 59.4934 17.9798 59.4934C27.9132 59.4934 35.9596 51.5053 35.9596 41.6439C35.9596 35.9533 33.2537 30.8989 29.0881 27.6471H31.6159C36.7428 27.6471 40.232 29.0963 41.7273 29.8739V58.6451H45.6081V29.8739C47.1035 29.0963 50.5926 27.6471 55.7195 27.6471H59.1731V58.6451H63.0538V43.5526H65.5817C69.7829 43.5526 73.0584 45.0724 75.3015 48.0415C77.3309 50.7277 78.4346 54.4743 78.4346 58.6451H82.4578C82.4578 53.626 81.0692 48.9958 78.5058 45.638ZM32.0432 41.6793C32.0432 49.3846 25.7413 55.6761 17.9442 55.6761C10.147 55.6761 3.84518 49.4199 3.84518 41.6793C3.84518 33.9386 10.147 27.6824 17.9442 27.6824C25.7413 27.6824 32.0432 33.9739 32.0432 41.6793Z" fill="white"/>
<path d="M32.8265 21.2142C35.8528 23.1935 39.5911 24.4306 42.5462 24.4306H44.3264C47.2815 24.4306 51.0199 23.1935 54.0462 21.2142C57.5353 18.9167 59.7783 15.5589 59.8852 12.4131L59.9564 10.5752L58.105 10.4338C55.8263 10.2571 52.3728 10.6105 49.3821 11.4588C48.5988 7.64149 45.4301 3.2233 45.0385 2.69312L43.5075 0.572388L41.941 2.65777C41.5493 3.18796 38.2738 7.5708 37.5617 11.4235C34.571 10.5752 31.1531 10.2571 28.8745 10.3984L27.0231 10.5398L27.0943 12.3778C27.1299 15.5589 29.3373 18.9167 32.8265 21.2142ZM51.91 17.9977C50.7706 18.74 49.6313 19.3055 48.5276 19.6943C49.0261 18.4572 49.3821 17.008 49.5245 15.4528C51.3047 14.8166 53.5121 14.4278 55.3991 14.2864C54.7938 15.5235 53.6545 16.8667 51.91 17.9977ZM41.2645 12.6252C41.3713 11.07 42.4038 9.01997 43.4363 7.35873C44.4332 9.05531 45.4657 11.1407 45.6437 12.6959C45.9998 15.8063 45.0741 19.1288 43.5075 20.5779C41.2289 18.0684 41.1221 14.5692 41.2645 12.6252ZM37.4193 15.4528C37.5617 16.9727 37.9178 18.4219 38.4874 19.7297C37.3837 19.3409 36.1732 18.74 34.9983 17.9977C33.2893 16.8667 32.1144 15.5235 31.5091 14.2864C33.3961 14.4278 35.6391 14.8166 37.4193 15.4528Z" fill="white"/>
</svg>
